<?xml version="1.0" encoding="UTF-8"?>
<svg version="1.1" viewBox="0 0 48 45" xmlns="http://www.w3.org/2000/svg" xmlns:xlink="http://www.w3.org/1999/xlink">
    <!--Generated by IJSVG (https://github.com/curthard89/IJSVG)-->
    <g transform="translate(-201, -262)">
        <g fill="#FFE400" fill-rule="evenodd" stroke="none" stroke-width="1">
            <path d="M24.4914,0h-0.002115c-0.041423,0 -0.080359,0 -0.117428,0.000496c-0.295561,0.002977 -0.781446,0.00769 -0.825108,0.008186c-1.06556,0 -3.19756,0.15008 -5.48766,1.15797c-1.30938,0.575885 -2.48714,1.35456 -3.50046,2.31445c-1.20812,1.14371 -2.19233,2.55384 -2.92476,4.19182c-1.07265,2.3983 -0.818017,6.43793 -0.613513,9.68424l0.000747,0.005086c0.021893,0.347664 0.044906,0.710708 0.065929,1.06445c-0.157359,0.072063 -0.412492,0.148095 -0.788536,0.148095c-0.605055,0 -1.32455,-0.192871 -2.13797,-0.572908c-0.239335,-0.111133 -0.512505,-0.16732 -0.813913,-0.16732c-0.484267,0 -0.994782,0.142142 -1.43763,0.401742c-0.557162,0.326207 -0.91716,0.787237 -1.01493,1.29838c-0.064436,0.338113 -0.061326,1.0064 0.683174,1.68412c0.409507,0.373091 1.01108,0.717158 1.78755,1.02315c0.203758,0.080001 0.44558,0.156405 0.701708,0.237399c0.888798,0.281678 2.234,0.707235 2.58479,1.53044c0.17776,0.417371 0.101257,0.966589 -0.226771,1.63041c-0.008583,0.018108 -0.017166,0.035845 -0.025003,0.05445c-0.081976,0.190887 -0.846753,1.91817 -2.41549,3.73984c-0.89141,1.03592 -1.87326,1.90167 -2.91667,2.57393c-1.27355,0.820726 -2.65159,1.35729 -4.09544,1.59444c-0.56699,0.092777 -0.971894,0.596474 -0.940297,1.16889c0.009702,0.164964 0.048513,0.329431 0.115811,0.488565c0.000497,0.000993 0.001119,0.001985 0.001617,0.002853c0.229259,0.534706 0.760796,0.988914 1.62496,1.38954c1.05598,0.489061 2.63529,0.900478 4.69365,1.22234c0.103994,0.197212 0.211968,0.692847 0.286729,1.0322c0.078245,0.360688 0.159847,0.731546 0.276156,1.12547c0.125514,0.426797 0.451054,0.93682 1.28736,0.93682c0.316957,0 0.681433,-0.071195 1.1035,-0.152808c0.618116,-0.120932 1.46337,-0.285896 2.51836,-0.285896c0.584903,0 1.19108,0.05135 1.80123,0.152436c1.17615,0.195228 2.19009,0.90941 3.36325,1.73646c1.71714,1.21031 3.6608,2.58026 6.63047,2.58026c0.080981,0 0.16221,-0.002605 0.242445,-0.008186c0.098147,0.004589 0.219804,0.008186 0.348179,0.008186c2.97054,0 4.9137,-1.37044 6.62898,-2.57976l0.002737,-0.002481c1.17341,-0.826059 2.18623,-1.53925 3.36201,-1.73448c0.609905,-0.100962 1.21596,-0.152436 1.80111,-0.152436c1.00784,0 1.80583,0.128126 2.51836,0.266671c0.464986,0.091288 0.826352,0.135196 1.10363,0.135196l0.027118,0.000496h0.028113c0.611647,0 1.06108,-0.334765 1.23262,-0.920572c0.113945,-0.385619 0.195299,-0.747795 0.275534,-1.11456c0.069909,-0.31802 0.181615,-0.827795 0.285609,-1.02712c2.05972,-0.322486 3.63841,-0.733035 4.69452,-1.22197c0.862177,-0.398766 1.39309,-0.852478 1.62372,-1.38495c0.069164,-0.15963 0.109592,-0.32509 0.118673,-0.493526c0.032467,-0.57142 -0.373059,-1.07611 -0.940422,-1.16889c-6.41688,-1.05453 -9.30768,-7.62877 -9.42723,-7.90809c-0.007712,-0.018357 -0.01642,-0.03659 -0.025501,-0.054327c-0.328028,-0.664072 -0.403784,-1.21267 -0.2259,-1.63078c0.350046,-0.822462 1.69438,-1.24802 2.5838,-1.52957c0.257496,-0.080869 0.500189,-0.157769 0.70233,-0.237399c0.875612,-0.344811 1.50144,-0.718894 1.91431,-1.14371c0.4931,-0.506426 0.589132,-0.991643 0.583161,-1.30917c-0.015051,-0.76826 -0.604059,-1.45094 -1.541,-1.78521c-0.31646,-0.130483 -0.677328,-0.199321 -1.04479,-0.199321c-0.250157,0 -0.620603,0.034233 -0.971271,0.19746c-0.75072,0.350269 -1.4232,0.541776 -2.00051,0.569063c-0.307006,-0.015504 -0.522332,-0.081862 -0.661779,-0.145242c0.01754,-0.299664 0.036946,-0.607514 0.056973,-0.928511l0.008335,-0.137428c0.205623,-3.24842 0.46113,-7.29115 -0.612021,-9.69119c-0.735544,-1.64381 -1.72323,-3.05753 -2.93621,-4.20372c-1.0173,-0.960511 -2.19904,-1.73907 -3.51315,-2.31458c-2.28687,-1.00045 -4.41874,-1.14991 -5.48579,-1.14991" transform="translate(200.97, 262)"></path>
        </g>
    </g>
</svg>