<svg version="1" xmlns="http://www.w3.org/2000/svg" width="896" height="896" viewBox="0 0 672.000000 672.000000"><path d="M243.5 61.4c-2.8 1.4-12.9 7.9-13.5 8.6-.3.4-1.4 1.3-2.6 2.1-7.1 4.9-23.7 20.6-31.6 30.1-2.5 2.9-6.6 8.4-9.1 12.3-2.6 3.8-5 7.5-5.4 8-4.3 5.7-13.2 28.9-14.7 38.5-1.6 9.3-1.8 11.7-2 17.2l-.2 6-12.4 4.2c-28.8 9.8-47.2 20.4-61.7 35.6-1.9 1.9-4.6 4.7-6 6.2-3.1 3.2-1.3 3.8 2 .7 7.5-7.2 28.1-18.4 44.3-24.2 7.2-2.6 26.9-7.9 33.4-9.1 7.3-1.3 8-1.5 9.8-3.3 3.2-3 4-5.4 4.6-14.2 1.5-22.1 12.4-47.2 28.7-66.6 7.7-9.1 26.6-27.3 32.4-31.1l2.7-1.8-.5 3c-1.6 7.6-2 12.8-2 23.9 0 14.6.9 22.7 4.3 37 2.1 8.5 5.8 20 8.7 26.9 4.1 9.4 10.2 21.4 11.3 22.1.9.6.9.2 0-1.4-.6-1.2-1.3-3-1.5-3.9-.2-.9-1.5-5.7-2.9-10.5-1.4-4.9-2.8-10.3-3.1-12-.4-1.8-1.1-5.2-1.5-7.7-2.9-14.4-3.7-23.5-3.4-39.4.1-8.3.4-16.5.7-18.1.2-1.7.8-5.3 1.2-8 .4-2.8 1.2-6.1 1.7-7.5.6-1.4 1.2-3.6 1.4-4.9.3-1.4.9-3.1 1.3-3.9 1.3-2.3-.5-9.3-3.1-11.9-3-3-8.6-4.4-11.3-2.9z"/><path d="M312 99.4c-5.5 2.3-17 8.4-18 9.6-.3.3-2.1 1.7-4 3-12.8 8.8-26.1 27.2-30.4 42l-1.6 5.5 4.7-5.4c8.3-9.5 15.5-16.2 24.8-23 7.7-5.7 23.5-15 23.5-13.9 0 .2-2.2 4.8-5 10.1-2.7 5.3-5 9.8-4.9 10 0 .1-.2.9-.5 1.7-.5 1.7-1.8 7.2-1.8 8 0 .3-.4 1.2-.8 2-.8 1.5-2.3 12.4-2.3 17 0 3.8 1.1 10.2 2.2 13 1 2.5 1 2.5 1-.6.1-1.8 1.3-6.7 2.7-11 3.3-9.8 13.6-30.3 15.7-31.2.4-.2.7-.8.7-1.3s2.9-4.9 6.3-9.7c7.9-10.9 8.7-12.3 8.7-16.2 0-6.8-5.3-12-12.2-12-1.8.1-5.8 1.1-8.8 2.4zM273 183c0 .4 8 3.8 17.8 7.5 19.8 7.6 22.5 8.7 36.7 15.6 21.3 10.4 29.1 16.2 31.5 23.6 1.6 4.7.6 13.1-2.4 19.5L354 255l7.8 5.4c4.2 3 15.8 9.6 25.7 14.7 21.4 11 23.4 12 30.5 16.8 4.8 3.2 6.2 3.6 12.5 3.8 22.6.6 31 1.7 33.5 4.8.7.8.9 2.6.5 4.4-1 4.9-11.9 15.1-19 17.9-7.4 3-13.7 11.9-14.9 21.1-.3 2.5-1.1 5-1.6 5.5-1.3 1.3-36 1.4-52.5.2-14.4-1.1-45.4-1.2-54.7-.3-28.6 3-54.7 14.6-72.5 32.4-11 10.9-14 15-19.2 25.6-4.8 10-6.4 16.2-6.4 25.2.1 7.6.2 8.5 1.3 8.5.6 0 1-2.2 1-4.9 0-9 6.1-24.5 13.2-33.5 4.6-5.9 14.6-15.3 20.9-19.8 16.5-11.7 33.6-17.9 56.6-20.7 7.3-.9 33.8-.7 43.8.4 3.9.4 8.6.8 10.5 1 1.9.2 7.3.7 12 1.1 10.8 1.1 45.4 1.1 49.8.1 7.2-1.6 12.6-8.5 13.5-17.3.7-6.2 2.2-8.1 8.4-11.1 7.6-3.8 19.5-15.1 22.7-21.6 6.1-12.5 2.9-23.9-8.3-29.3-6-2.9-13.3-4-27.5-4.3-13.7-.2-13.7-.3-19.5-3.7-3.3-1.9-14.1-7.3-24.2-12-15.5-7.2-28.9-14-28.9-14.7 0-.1.5-1.8 1-3.7 3.2-10.8.1-22.9-8-30.7-6.9-6.8-28.3-16.9-50.5-23.7-8.1-2.5-25.7-7.5-28.5-8.1-.8-.2-3.4-.8-5.7-1.3-2.4-.5-4.3-.6-4.3-.2z"/><path d="M302 219.8c-7.6 2.6-12 4.5-12 5.1 0 .5 2.4 1.2 5.3 1.5 2.8.4 7.1 1.2 9.4 1.8l4.3 1-.1 5.7c-.1 3.1.4 7.4 1 9.6 1.2 4.6 6.1 9.7 10.6 11.2 3.6 1.2 11.2.8 15.1-.8 1.6-.7 3.1-1.2 3.4-1.1.3 0 2.3-1.2 4.5-2.7 4.6-3.1 7.2-9 6.1-13.6-1.5-5.9-11.8-12.8-25-16.8-4.6-1.4-19.4-2-22.6-.9zm27.7 20.6c-.5 1.4-6.1 3-8 2.3-1.9-.7-6.3-6.5-7.2-9.6-.7-2.2-.3-2.1 7.4 1.9 4.5 2.4 8 4.8 7.8 5.4zM101 235.3c-4.2 2-14.1 8.8-22 15.2-20.7 16.7-40.1 40.7-52 64.5-4.2 8.5-11.9 26.5-12.4 29.4-.2.6-.9 3.1-1.6 5.6-.7 2.5-1.4 4.9-1.6 5.5-.1.5-.6 2.8-1.2 5-5.6 21.1-7.8 60.6-4.7 85 .2 2.2.7 6 1 8.5.3 2.5.7 5.6 1 7 2.6 13.6 3.7 18.9 4.5 21 .6 1.4 1.1 3.4 1.3 4.5.1 1.1.5 2.4.8 3 .4.5.9 2.3 1.3 3.8s1.1 2.5 1.6 2.2c.5-.3.7-1.5.4-2.8-1.7-7.8-1.7-60.9.1-76.7.2-1.9.6-6.3.9-9.6 3.8-41.1 16.6-79.5 38.3-114.6 5.3-8.6 18.2-26.6 22.8-31.8 6.9-7.8 12.7-14 18.3-19.6 3.4-3.5 6.1-6.4 6-6.3-.2 0-1.4.6-2.8 1.2z"/><path d="M33.6 366.7c-.6 1.4-.5 1.5.5.6.7-.7 1-1.5.7-1.8-.3-.3-.9.2-1.2 1.2zM32.6 371.7c-.4 1.6-.9 3.9-1.1 5.3-.3 1.4-.7 3.6-1 5-.3 1.4-.8 4.5-1.1 7-.3 2.5-.8 5.8-1 7.5-1.9 13-2.6 58.2-1.2 71 4.4 38.3 18.6 70.1 41.3 92.7 10.9 10.9 21.6 18.4 36.6 25.8 24.9 12.3 48.6 19.2 79.9 23.6 9.3 1.3 47.5 1.2 58-.1 11.3-1.4 11.6-1.5 23-4 4.1-.9 8.5-1.8 9.7-2.1 2.8-.5 21.6-7.1 25.8-8.9 10.2-4.4 26.3-12 50.3-23.6 10.1-4.9 18.8-8.9 19.3-8.9s.9-.5.9-1c0-.6.5-1 1.1-1 .5 0 3.4-1.1 6.2-2.4 2.9-1.3 8.6-4 12.7-5.9 24.9-11.5 60.9-23.3 80.5-26.3 2.8-.4 5.6-.8 6.3-1 .7-.1 4.3-.5 8-.8 3.7-.4 10.1-.9 14.2-1.3 15.8-1.5 77.3-.7 95 1.2 1.9.2 6.7.6 10.5.9 3.9.4 8.4.8 10 1 1.7.2 5.9.7 9.5 1.1 3.6.4 7.4.9 8.5 1.1 1.1.2 3.8.6 6 .9 2.2.3 5.6.8 7.5 1.1 10.9 1.5 11.9 1.1 3-1.2-8.7-2.2-30.2-6.7-37.5-7.8-1.6-.3-7-1.2-12-2-9.3-1.5-12.6-2-21-3.1-2.7-.3-6.6-.9-8.5-1.1-1.9-.3-6-.7-9-.9-3-.3-9.3-.8-14-1.1-17.8-1.5-68.7-.8-78.5 1-1.1.2-4.2.7-6.8 1-5.7.9-5.5.8-17.6 3.6-5.2 1.1-15.1 3.9-22 6.2-6.9 2.3-12.8 4.3-13.1 4.3-.3.1-1.8.7-3.3 1.3-1.6.7-3.3 1.2-3.8 1.2s-1.7.4-2.7 1c-2.2 1.2-7.4 3.4-14.1 6-5.4 2.1-8.4 3.4-21.1 9.3-3.6 1.6-9.2 4.2-12.5 5.7-3.3 1.5-12.3 5.8-20 9.5-35.8 17.1-52.9 23.8-70.6 27.4-2.9.6-6.5 1.4-7.9 1.7-1.4.3-4.1.7-6 .9-1.9.3-4.4.7-5.5.9-10.9 2.4-47.5 2.5-61.5.2-1.4-.3-4.3-.7-6.5-1-5.6-.8-9-1.4-17-3.2-3.8-.9-7.9-1.8-9.1-2-3.9-.7-20.8-6.5-29.2-10-19.7-8.2-32.7-16.2-44.2-27.5-7.5-7.3-15-16.2-15-17.7 0-.6-.3-1.2-.7-1.4-1.2-.5-5.7-7.7-9.2-14.6-13.6-27-19.4-57.7-19.4-103.2 0-16.1.3-22.3 1.8-38.7.1-1.7.6-3.6.9-4.2.4-.6.3-1.1-.3-1.1-.5 0-1.2 1.2-1.5 2.7z"/><path d="M51.1 409.2c-1 16.6-.4 27.9 2.4 41.8.8 4.1 1.7 8.4 1.9 9.5.9 4.6 7.6 23.5 10.7 30 14.3 30.4 38.9 52.5 63.3 56.9 3.9.8 3.9.7-4-5.1C98.1 522 79.9 490.4 59.3 428c-4-12.3-7.5-22.5-7.7-22.7-.1-.2-.4 1.6-.5 3.9z"/></svg>