<svg xmlns="http://www.w3.org/2000/svg" xmlns:xlink="http://www.w3.org/1999/xlink" version="1.1" x="0px" y="0px" viewBox="0 0 100 100" style="enable-background:new 0 0 100 100;" xml:space="preserve"><path d="M93.3,53.8c0-0.5-0.3-2.2-2-3.2c-1.8-1.1-5.3-2.2-7.1-2.6c-0.5-0.1-0.9-0.4-1.2-0.9c-0.4-0.8-0.5-1.9-0.1-3.1  c0.3-1.1,1-2,1.6-2.9c0.6-0.9,1.2-1.8,1.4-2.7c0.4-2.1-0.2-4.7-1.6-6.9c-1.4-2.3-8.7-10.7-11.9-13.7C69.3,14.9,58.4,6.6,57.9,6.2  l-0.2-0.1C57.4,6,57,5.7,56.3,5.8c-0.6,0.1-0.8,0.3-0.9,0.5c-0.3,0.5,0.1,1.1,0.3,1.5c0.1,0.1,9.4,13.7,11.1,18.2  c1.5,3.8,1.9,6.8,1.2,9.2c-0.7,2.3-2.4,5.1-3.4,6.6c-1.2,1.7-3,5.8-3.4,6.6c-0.9,0.5-5.3,2.7-8,3.8c-1,0-10.5,0.3-16,0.7  c-3.3,0.3-31.2,3-31.5,3c0,0-0.4,0.1-0.4,0.5c0,0.5,0.5,0.5,0.5,0.5l4.1-0.1c23.7-0.4,26.4-0.5,32.3,0.2c-2.6,0.8-5.7,1.6-9.6,2  C26.7,59.6,6,60,6,60c0,0-0.5,0-0.5,0.5C5.5,61,6,61,6,61l8.2,0.2c8.2,0.2,12.8,0.4,16.5,0.4c4.4,0,7.5-0.2,13.2-0.6  c2.9-0.2,9-0.6,13.2-0.6c0.4,0,0.7,0,1,0c0.8,0.2,1.4,0.4,1.8,0.4c1.8,0.4,3.4,3.1,3.5,4.5c0,2-0.6,3.3-3.8,4.7  c-3,1.3-12,1.8-18.6,2.1c-2.5,0.1-4.7,0.3-6.1,0.4c-0.3,0-0.9,0.1-0.9,0.6c0,0.5,0.3,0.7,2.3,0.9c0.3,0,1.8,0,4.1,0  c8.5,0,27.7-0.1,31.2-1.1c7-1.8,8.7-4.3,9.7-5.6c0.1-0.2,0.2-0.3,0.4-0.5c0.8-0.9,1.2-1.9,1.1-2.7c-0.1-0.5-0.3-0.8-0.7-1.1  c-0.6-0.4-0.4-1.4-0.3-1.8c0,0,0.1,0,0.1,0c0.2-0.1,5.3-1.5,7-2.5c0.9-0.5,1.6-1.1,2.3-1.6c0.5-0.4,1-0.8,1.3-0.9  c0.6-0.3,1.6-0.4,1.7-0.4l0.9,0L93.3,53.8z"/></svg>
