<?xml version="1.0" encoding="UTF-8"?>
<svg version="1.1" viewBox="0 0 48 48" xmlns="http://www.w3.org/2000/svg" xmlns:xlink="http://www.w3.org/1999/xlink">
    <!--Generated by IJSVG (https://github.com/curthard89/IJSVG)-->
    <g transform="translate(-200, -160)">
        <g fill="#FFFFFF" fill-rule="evenodd" stroke="none" stroke-width="1">
            <path d="M25.6384,48h-22.9891c-1.46356,0 -2.64923,-1.18641 -2.64923,-2.6494v-42.7014c0,-1.46336 1.18586,-2.64921 2.64923,-2.64921h42.7017c1.463,0 2.64905,1.18585 2.64905,2.64921v42.7014c0,1.46318 -1.18623,2.6494 -2.64905,2.6494h-12.2317v-18.5882h6.23922l0.934234,-7.24417h-7.17345v-4.62494c0,-2.09735 0.582407,-3.52663 3.58999,-3.52663l3.83602,-0.001677v-6.47924c-0.663425,-0.088283 -2.94053,-0.285521 -5.58976,-0.285521c-5.53072,0 -9.3172,3.37596 -9.3172,9.57564v5.34238h-6.25523v7.24417h6.25523v18.5882v0Z" transform="translate(200, 160)"></path>
        </g>
    </g>
</svg>