<svg viewBox="0 0 350 100" xmlns="http://www.w3.org/2000/svg" fill-rule="evenodd" clip-rule="evenodd" stroke-linejoin="round" stroke-miterlimit="1.414"><path fill="none" d="M0 0h350v100H0z"/><path d="M143.616 35.693c.538-.373 1.2-.805 2.008-1.213.805-.411 1.74-.814 2.784-1.187a31.754 31.754 0 0 1 3.44-.963l.934-.183.248-.041.124-.021c.104-.021.208-.053.307-.099.4-.184.682-.568.753-.983l.051-.642.027-.484c.003-.325.057-.649.116-.974.395-2.615 1.766-5.209 3.637-7.4a24.202 24.202 0 0 1 3.055-3.069c.399-.332.79-.645 1.188-.953-.288 1.252-.354 2.498-.364 3.663-.002 1.356.203 2.615.419 3.758a23.353 23.353 0 0 0 1.807 5.268c.588 1.203 1.017 1.834 1.017 1.834s-.28-.71-.648-1.976a32.888 32.888 0 0 1-.572-2.298c-.202-.888-.337-1.906-.474-3.004-.085-1.104-.147-2.299-.062-3.544.106-1.24.282-2.543.705-3.808l.069-.24.035-.121c.052-.199.026-.07.059-.249.078-.572-.138-1.008-.502-1.326a1.43 1.43 0 0 0-1.729-.078l-.114.076-.227.152a21.83 21.83 0 0 0-1.84 1.363 26.21 26.21 0 0 0-3.356 3.271c-1.008 1.218-1.894 2.556-2.577 3.982-.706 1.417-1.1 2.965-1.273 4.467a7.208 7.208 0 0 0-.08 1.123l-.005.555.002.236-.116.029c-.341.088-.669.18-.988.274-1.282.38-2.458.844-3.507 1.348a18.336 18.336 0 0 0-2.742 1.594c-.783.528-1.387 1.096-1.869 1.564-.472.482-.807.89-1.011 1.185l-.322.442.402-.369c.253-.253.67-.567 1.191-.959zm18.906-19.19l.001-.009.006-.019-.007.028zm.002-.019l.001-.021c.015-.051.005-.009-.001.021zm-25.899 32.197c.47-1 .879-2.015 1.413-2.931.237-.474.512-.916.777-1.353.263-.438.51-.875.797-1.27a46.48 46.48 0 0 1 1.611-2.242c.544-.662 1.04-1.279 1.511-1.8.474-.517.888-.975 1.25-1.33.713-.724 1.16-1.109 1.16-1.109l-.376.193c-.24.135-.605.319-1.032.608-.437.277-.954.635-1.521 1.081-.573.441-1.191.974-1.839 1.588-.633.628-1.317 1.318-1.957 2.121-.342.385-.647.816-.97 1.25-.334.427-.639.888-.926 1.372-.612.945-1.156 1.978-1.667 3.049-.451 1.096-.919 2.209-1.244 3.372a13.291 13.291 0 0 0-.439 1.75c-.115.589-.248 1.172-.345 1.756a49.499 49.499 0 0 0-.182 1.75l-.075.828-.049.859a34.77 34.77 0 0 0 .299 6.065c.243 1.758.587 3.198.889 4.184.13.497.291.874.374 1.136l.14.398-.122-1.604c-.08-1.015-.13-2.465-.135-4.19.019-1.726.091-3.738.312-5.86l.093-.786.127-.834c.088-.537.167-1.081.236-1.631.102-.544.239-1.085.356-1.632a12.54 12.54 0 0 1 .44-1.622c.279-1.09.696-2.134 1.094-3.166zm9.435 25.236a18.681 18.681 0 0 1-2.092-2.558 21.694 21.694 0 0 1-.975-1.581 25.593 25.593 0 0 1-.88-1.712 48.865 48.865 0 0 1-1.504-3.549 79.147 79.147 0 0 1-1.125-3.22l-1.023-3.253s-.058.344-.106.949c-.048.61-.073 1.479.007 2.521a19.83 19.83 0 0 0 .571 3.525 20.81 20.81 0 0 0 1.375 3.883c.308.64.634 1.25 1.028 1.861.368.601.813 1.14 1.243 1.655.874 1.021 1.857 1.834 2.778 2.385a8.335 8.335 0 0 0 2.36 1.014c.293.089.54.109.699.138l.247.038s-.299-.187-.779-.537a14.345 14.345 0 0 1-1.824-1.559z" fill="#ffc857" fill-rule="nonzero"/><path d="M166.487 25.018c.357-.327.758-.661 1.191-.993.43-.335.911-.649 1.411-.959.494-.319 1.043-.585 1.598-.848.091-.04.181-.083.272-.125-.233.395-.452.793-.658 1.186-.591 1.171-1.001 2.35-1.184 3.4-.204 1.045-.17 1.949-.064 2.552.036.303.122.534.168.689l.073.235.035-.245c.019-.159.057-.387.122-.671.119-.569.365-1.344.764-2.221.401-.877.955-1.852 1.615-2.863.324-.507.704-1.01 1.068-1.522l.286-.383.151-.199a1.547 1.547 0 0 0 .273-.561c.229-.984-.492-1.971-1.632-1.897-.212.028-.224.044-.261.051l-.111.035-.031.013-.062.025-.248.101-.495.203c-.335.122-.64.312-.955.468a11.54 11.54 0 0 0-1.728 1.136 9.734 9.734 0 0 0-1.414 1.307c-.423.44-.765.908-1.056 1.35a9.24 9.24 0 0 0-1.114 2.272c-.185.581-.221.927-.221.927s.781-1.151 2.207-2.463zm5.763-3.45l.01-.004c.022-.004.027-.004-.01.004zm-6.14 8.898l3.878 1.465a35.96 35.96 0 0 1 3.715 1.68c.299.158.589.32.87.483.291.174.607.339.849.5.519.326.949.711 1.228 1.11.272.404.381.811.379 1.279-.014.229-.029.509-.084.72-.009.086-.072.299-.11.454-.026.076-.096.112-.123.175l-.442 1.031.902.653c1.274.921 2.615 1.561 3.861 2.184.623.313 1.237.595 1.807.907l.417.233.397.237.736.471.013.011.411.358.631.017 2.301.063.111.003.01.001.046.005.091.009.35.039c.45.058.856.123 1.174.223.16.048.283.106.38.157.087.042.156.12.141.101-.014-.011-.034-.048-.028-.049l.07.106.002.006a.797.797 0 0 1 .021.199c.001.223-.059.487-.158.676l-.08.135c-.057.073.012-.005-.109.136-.096.106-.284.309-.425.447a6.994 6.994 0 0 1-.92.781 3.412 3.412 0 0 1-.404.252c-.025.011-.008.01-.067.034l-.159.066a3.071 3.071 0 0 0-.78.447 3.146 3.146 0 0 0-1.195 2.346l-.002.293a.525.525 0 0 1-.065.236c.065-.037-.062.067-.412.111l-.284.032-.155.012-.043.001-.096.003-.767.023-.767.024c-.133.015-.453.004-.67.008a51.522 51.522 0 0 1-2.973-.121c-2.02-.13-4.128-.307-6.298-.161a20.148 20.148 0 0 0-3.258.453 15.794 15.794 0 0 0-3.122 1.078 14.603 14.603 0 0 0-2.814 1.713 13.011 13.011 0 0 0-2.277 2.359c-.623.832-1.206 1.825-1.527 2.843a6.651 6.651 0 0 0-.263 3.158l.2-.006c-.051-1.011.156-2.019.552-2.947.388-.937.966-1.771 1.642-2.535 1.334-1.525 3.072-2.674 4.953-3.423 1.885-.751 3.921-1.093 5.948-1.121 2.035-.038 4.068.188 6.106.375 1.02.094 2.043.178 3.071.215.514.025 1.039.011 1.544 0 .507-.015 1.025.001 1.552-.069.518-.067 1.08-.215 1.502-.615.415-.392.632-.941.68-1.488.017-.304-.008-.5.078-.708.074-.207.207-.391.38-.525.161-.14.388-.185.65-.317.244-.119.469-.257.686-.408a8.634 8.634 0 0 0 1.187-1.025c.352-.369.742-.754.973-1.258a3.497 3.497 0 0 0 .336-1.574c.003-.529-.201-1.135-.585-1.519-.814-.815-1.941-.953-2.949-1.062-1.032-.086-2.015-.025-3.024-.04l-.028-.023-.01-.008-.01-.006c-.592-.362-1.202-.731-1.835-1.042-.63-.316-1.271-.6-1.911-.883-1.242-.549-2.487-1.092-3.613-1.825.14-.295.222-.593.259-.9.061-.355.066-.709.049-1.067a3.505 3.505 0 0 0-.785-1.969c-.459-.549-1.042-.972-1.656-1.304a22.767 22.767 0 0 0-1.884-.89c-2.557-1.082-5.245-1.783-7.925-2.446l-.047.197z" fill="#ffc857" fill-rule="nonzero"/><path d="M170.688 37.896c.051.19.115.393.225.607.108.208.26.429.573.668l.135.096.105.07.004.003.085.037.013.005c.141.061.286.109.435.142.297.068.594.064.872.035a4.286 4.286 0 0 0 1.494-.486l.334-.188c.018-.001.384-.228.535-.492a1.529 1.529 0 0 0-.058-1.769c-.324-.361-.344-.298-.458-.397l-.299-.204c-.193-.143-.413-.249-.624-.363a4.259 4.259 0 0 0-.647-.3 4.469 4.469 0 0 0-.658-.23 5.939 5.939 0 0 0-1.293-.242 5.356 5.356 0 0 0-1.168.022 4.927 4.927 0 0 0-1.647.467c-.368.185-.546.341-.546.341s.942.019 2.127.333c.137.036.286.095.43.141-.062.401-.143.968.031 1.704zm1.438-1.114c.326.161.652.346.971.557.101.064.2.135.299.203a3.344 3.344 0 0 1-.575.27c-.274.066-.385.132-.625.031.009.018-.097-.024-.188-.108a1.603 1.603 0 0 1-.264-.288 6.367 6.367 0 0 1-.578-1.087c.317.115.639.256.96.422zm39.026 36.252a89.324 89.324 0 0 0-5.07-.884c-1.97-.286-4.205-.559-6.66-.673a67.999 67.999 0 0 0-3.848-.088 43.429 43.429 0 0 0-4.123.213c-2.849.317-5.801 1.076-8.688 2.19-2.901 1.09-5.777 2.447-8.654 3.831-1.452.691-2.87 1.368-4.358 2.015-1.449.62-2.899 1.164-4.434 1.507-3.039.753-6.221.957-9.309.694-3.08-.273-6.116-.956-8.822-2.07-.669-.244-1.364-.604-2.039-.912l-.906-.498c-.303-.177-.59-.376-.884-.561a14.635 14.635 0 0 1-3.002-2.741c-1.696-2.056-2.78-4.428-3.4-6.716-.645-2.287-.818-4.498-.954-6.465a44.635 44.635 0 0 1-.028-5.098c.088-1.412.203-2.523.32-3.274.111-.753.196-1.152.196-1.152s-.121.388-.302 1.13a28.11 28.11 0 0 0-.6 3.26 44.983 44.983 0 0 0-.327 5.151c-.003 1.982.009 4.277.585 6.722.53 2.436 1.552 5.048 3.348 7.368a16.184 16.184 0 0 0 3.214 3.151c.318.218.631.45.96.658l1.039.601c.68.327 1.32.681 2.076.983a30.737 30.737 0 0 0 9.355 2.382c3.282.303 6.674.113 9.953-.673 1.639-.373 3.242-.989 4.761-1.654 1.477-.655 2.965-1.377 4.396-2.072 2.887-1.39 5.664-2.828 8.454-3.929 2.778-1.123 5.548-1.951 8.24-2.35 1.328-.191 2.695-.282 3.992-.356a67.326 67.326 0 0 1 3.757-.101c4.84.029 8.885.416 11.698.793 2.816.37 4.416.674 4.416.674s-1.558-.475-4.352-1.056z" fill="#ffc857" fill-rule="nonzero"/><path d="M34.357 44.212h4.08l4.584 12.672 4.608-12.672h3.912l-6.672 16.8h-3.912l-6.6-16.8zm21.432 0h3.792v16.8h-3.792zm8.664 0h4.416l3.504 5.136 3.528-5.136h4.488l-5.592 8.04 6.072 8.76h-4.536l-3.96-5.592-3.888 5.592h-4.44l6.024-8.592-5.616-8.208zm20.952 0h12.792v3.144h-9v3.648h8.088v3.144h-8.088v3.72h9.264v3.144H85.405v-16.8zm30.048 0h3.6v16.8h-3.456l-8.136-10.8v10.8h-3.624v-16.8h3.456l8.16 10.848V44.212zm91.075-.216H218.6l-.024 3.144h-8.256v4.128h7.584v3.168h-7.584v6.36h-3.792v-16.8zm16.68 0H227v16.8h-3.792zm8.256 0h14.04v3.216h-5.136v13.584h-3.792V47.212h-5.112v-3.216zm30.096 0h3.6v16.8h-3.456l-8.136-10.8v10.8h-3.624v-16.8h3.456l8.16 10.848V43.996zm9.696 0h12.792v3.144h-9v3.648h8.088v3.144h-8.088v3.72h9.264v3.144h-13.056v-16.8zm26.748 3.42c-.968-.312-1.796-.468-2.484-.468-.656 0-1.176.12-1.56.36-.384.24-.576.592-.576 1.056 0 .592.276 1.044.828 1.356.552.312 1.404.636 2.556.972 1.152.336 2.1.672 2.844 1.008.744.336 1.38.84 1.908 1.512s.792 1.56.792 2.664c0 1.072-.284 1.996-.852 2.772-.568.776-1.348 1.364-2.34 1.764-.992.4-2.12.6-3.384.6-1.36 0-2.696-.24-4.008-.72-1.312-.48-2.448-1.136-3.408-1.968l1.512-3.096a10.222 10.222 0 0 0 2.928 1.848c1.104.464 2.112.696 3.024.696.784 0 1.396-.144 1.836-.432.44-.288.66-.704.66-1.248 0-.432-.148-.788-.444-1.068a3.4 3.4 0 0 0-1.128-.684 21.855 21.855 0 0 0-1.884-.6c-1.152-.32-2.092-.64-2.82-.96a4.962 4.962 0 0 1-1.884-1.464c-.528-.656-.792-1.528-.792-2.616 0-1.008.272-1.892.816-2.652.544-.76 1.304-1.344 2.28-1.752.976-.408 2.112-.612 3.408-.612a11.8 11.8 0 0 1 3.408.504c1.12.336 2.112.784 2.976 1.344l-1.464 3.144a12.755 12.755 0 0 0-2.748-1.26zm17.688 0c-.968-.312-1.796-.468-2.484-.468-.656 0-1.176.12-1.56.36-.384.24-.576.592-.576 1.056 0 .592.276 1.044.828 1.356.552.312 1.404.636 2.556.972 1.152.336 2.1.672 2.844 1.008.744.336 1.38.84 1.908 1.512s.792 1.56.792 2.664c0 1.072-.284 1.996-.852 2.772-.568.776-1.348 1.364-2.34 1.764-.992.4-2.12.6-3.384.6-1.36 0-2.696-.24-4.008-.72-1.312-.48-2.448-1.136-3.408-1.968l1.512-3.096a10.222 10.222 0 0 0 2.928 1.848c1.104.464 2.112.696 3.024.696.784 0 1.396-.144 1.836-.432.44-.288.66-.704.66-1.248 0-.432-.148-.788-.444-1.068a3.4 3.4 0 0 0-1.128-.684 21.855 21.855 0 0 0-1.884-.6c-1.152-.32-2.092-.64-2.82-.96a4.962 4.962 0 0 1-1.884-1.464c-.528-.656-.792-1.528-.792-2.616 0-1.008.272-1.892.816-2.652.544-.76 1.304-1.344 2.28-1.752.976-.408 2.112-.612 3.408-.612a11.8 11.8 0 0 1 3.408.504c1.12.336 2.112.784 2.976 1.344l-1.464 3.144a12.755 12.755 0 0 0-2.748-1.26z" fill="#704155" fill-rule="nonzero"/></svg>